<mxfile host="Electron" agent="Mozilla/5.0 (Windows NT 10.0; Win64; x64) AppleWebKit/537.36 (KHTML, like Gecko) draw.io/26.1.1 Chrome/132.0.6834.210 Electron/34.3.3 Safari/537.36" version="26.1.1">
  <diagram name="Page-1" id="c7558073-3199-34d8-9f00-42111426c3f3">
    <mxGraphModel dx="2926" dy="2411" grid="1" gridSize="10" guides="1" tooltips="1" connect="1" arrows="1" fold="1" page="1" pageScale="1" pageWidth="826" pageHeight="1169" background="none" math="0" shadow="0">
      <root>
        <mxCell id="0" />
        <mxCell id="1" parent="0" />
        <mxCell id="BAY54sGpCq9EKKCVZQ9k-120" value="RECRUITMENT SYSTEM" style="swimlane;whiteSpace=wrap;html=1;labelBackgroundColor=none;startSize=50;fillColor=#ffe6cc;strokeColor=#d79b00;glass=0;swimlaneLine=1;" parent="1" vertex="1">
          <mxGeometry x="-170" y="-210" width="1240" height="770" as="geometry" />
        </mxCell>
        <mxCell id="BAY54sGpCq9EKKCVZQ9k-147" value="" style="rounded=0;whiteSpace=wrap;html=1;" parent="BAY54sGpCq9EKKCVZQ9k-120" vertex="1">
          <mxGeometry x="10" y="40" width="1240" height="720" as="geometry" />
        </mxCell>
        <mxCell id="BAY54sGpCq9EKKCVZQ9k-125" value="PERFORM LOGOUT" style="ellipse;whiteSpace=wrap;html=1;" parent="BAY54sGpCq9EKKCVZQ9k-120" vertex="1">
          <mxGeometry x="450" y="430" width="120" height="80" as="geometry" />
        </mxCell>
        <mxCell id="BAY54sGpCq9EKKCVZQ9k-111" value="VEIWING JOB STATUS" style="ellipse;whiteSpace=wrap;html=1;" parent="BAY54sGpCq9EKKCVZQ9k-120" vertex="1">
          <mxGeometry x="450" y="160" width="120" height="80" as="geometry" />
        </mxCell>
        <mxCell id="BAY54sGpCq9EKKCVZQ9k-108" value="SEARCHING FOR JOBS" style="ellipse;whiteSpace=wrap;html=1;" parent="BAY54sGpCq9EKKCVZQ9k-120" vertex="1">
          <mxGeometry x="450" y="70" width="120" height="80" as="geometry" />
        </mxCell>
        <mxCell id="BAY54sGpCq9EKKCVZQ9k-126" value="UPDATE DETAILS" style="ellipse;whiteSpace=wrap;html=1;" parent="BAY54sGpCq9EKKCVZQ9k-120" vertex="1">
          <mxGeometry x="450" y="520" width="120" height="80" as="geometry" />
        </mxCell>
        <mxCell id="BAY54sGpCq9EKKCVZQ9k-128" value="PASSWORD CHANGE" style="ellipse;whiteSpace=wrap;html=1;" parent="BAY54sGpCq9EKKCVZQ9k-120" vertex="1">
          <mxGeometry x="450" y="610" width="120" height="80" as="geometry" />
        </mxCell>
        <mxCell id="BAY54sGpCq9EKKCVZQ9k-127" value="VIEW APPLICATION" style="ellipse;whiteSpace=wrap;html=1;" parent="BAY54sGpCq9EKKCVZQ9k-120" vertex="1">
          <mxGeometry x="912" y="370" width="120" height="80" as="geometry" />
        </mxCell>
        <mxCell id="BAY54sGpCq9EKKCVZQ9k-136" value="MANAGE COMPANY" style="ellipse;whiteSpace=wrap;html=1;" parent="BAY54sGpCq9EKKCVZQ9k-120" vertex="1">
          <mxGeometry x="1100" y="260" width="120" height="80" as="geometry" />
        </mxCell>
        <mxCell id="BAY54sGpCq9EKKCVZQ9k-133" value="MANAGING EMPLOYEES" style="ellipse;whiteSpace=wrap;html=1;" parent="BAY54sGpCq9EKKCVZQ9k-120" vertex="1">
          <mxGeometry x="1010" y="310" width="120" height="80" as="geometry" />
        </mxCell>
        <mxCell id="BAY54sGpCq9EKKCVZQ9k-142" value="&amp;lt;include&amp;gt;" style="text;html=1;align=center;verticalAlign=middle;whiteSpace=wrap;rounded=0;" parent="BAY54sGpCq9EKKCVZQ9k-120" vertex="1">
          <mxGeometry x="553" y="330" width="67" height="30" as="geometry" />
        </mxCell>
        <mxCell id="BAY54sGpCq9EKKCVZQ9k-143" value="&amp;lt;include&amp;gt;" style="text;html=1;align=center;verticalAlign=middle;whiteSpace=wrap;rounded=0;" parent="BAY54sGpCq9EKKCVZQ9k-120" vertex="1">
          <mxGeometry x="560" y="600" width="67" height="30" as="geometry" />
        </mxCell>
        <mxCell id="BAY54sGpCq9EKKCVZQ9k-144" value="&amp;lt;include&amp;gt;" style="text;html=1;align=center;verticalAlign=middle;whiteSpace=wrap;rounded=0;" parent="BAY54sGpCq9EKKCVZQ9k-120" vertex="1">
          <mxGeometry x="560" y="510" width="67" height="30" as="geometry" />
        </mxCell>
        <mxCell id="BAY54sGpCq9EKKCVZQ9k-110" value="APPLYING FOR JOB" style="ellipse;whiteSpace=wrap;html=1;" parent="BAY54sGpCq9EKKCVZQ9k-120" vertex="1">
          <mxGeometry x="450" y="250" width="120" height="80" as="geometry" />
        </mxCell>
        <mxCell id="BAY54sGpCq9EKKCVZQ9k-109" value="PERFORM LOGIN" style="ellipse;whiteSpace=wrap;html=1;" parent="BAY54sGpCq9EKKCVZQ9k-120" vertex="1">
          <mxGeometry x="450" y="340" width="120" height="80" as="geometry" />
        </mxCell>
        <mxCell id="bb3IZaETeLpU1EHvv75Z-22" value="MANAGE APPLICANTS" style="ellipse;whiteSpace=wrap;html=1;" vertex="1" parent="BAY54sGpCq9EKKCVZQ9k-120">
          <mxGeometry x="900" y="70" width="144" height="80" as="geometry" />
        </mxCell>
        <mxCell id="BAY54sGpCq9EKKCVZQ9k-98" value="APPLICANT" style="shape=umlActor;verticalLabelPosition=bottom;verticalAlign=top;html=1;" parent="1" vertex="1">
          <mxGeometry x="-270" y="240" width="80" height="160" as="geometry" />
        </mxCell>
        <mxCell id="BAY54sGpCq9EKKCVZQ9k-115" value="" style="endArrow=classic;html=1;rounded=0;exitX=0.75;exitY=0.1;exitDx=0;exitDy=0;exitPerimeter=0;" parent="1" source="BAY54sGpCq9EKKCVZQ9k-98" target="BAY54sGpCq9EKKCVZQ9k-125" edge="1">
          <mxGeometry width="50" height="50" relative="1" as="geometry">
            <mxPoint x="-90" y="300" as="sourcePoint" />
            <mxPoint x="350" y="310" as="targetPoint" />
          </mxGeometry>
        </mxCell>
        <mxCell id="BAY54sGpCq9EKKCVZQ9k-107" value="" style="endArrow=classic;html=1;rounded=0;entryX=0;entryY=0.5;entryDx=0;entryDy=0;exitX=0.75;exitY=0.1;exitDx=0;exitDy=0;exitPerimeter=0;" parent="1" source="BAY54sGpCq9EKKCVZQ9k-98" target="BAY54sGpCq9EKKCVZQ9k-109" edge="1">
          <mxGeometry width="50" height="50" relative="1" as="geometry">
            <mxPoint x="60" y="300" as="sourcePoint" />
            <mxPoint x="160" y="260" as="targetPoint" />
          </mxGeometry>
        </mxCell>
        <mxCell id="BAY54sGpCq9EKKCVZQ9k-99" value="" style="endArrow=classic;html=1;rounded=0;exitX=0.75;exitY=0.1;exitDx=0;exitDy=0;exitPerimeter=0;entryX=0;entryY=0.5;entryDx=0;entryDy=0;" parent="1" source="BAY54sGpCq9EKKCVZQ9k-98" target="BAY54sGpCq9EKKCVZQ9k-110" edge="1">
          <mxGeometry width="50" height="50" relative="1" as="geometry">
            <mxPoint x="120" y="270" as="sourcePoint" />
            <mxPoint x="160" y="170" as="targetPoint" />
          </mxGeometry>
        </mxCell>
        <mxCell id="BAY54sGpCq9EKKCVZQ9k-101" value="" style="endArrow=classic;html=1;rounded=0;entryX=0;entryY=0.5;entryDx=0;entryDy=0;exitX=0.5;exitY=0;exitDx=0;exitDy=0;exitPerimeter=0;" parent="1" source="BAY54sGpCq9EKKCVZQ9k-98" target="BAY54sGpCq9EKKCVZQ9k-111" edge="1">
          <mxGeometry width="50" height="50" relative="1" as="geometry">
            <mxPoint x="40" y="280" as="sourcePoint" />
            <mxPoint x="90" y="180" as="targetPoint" />
          </mxGeometry>
        </mxCell>
        <mxCell id="BAY54sGpCq9EKKCVZQ9k-104" style="edgeStyle=orthogonalEdgeStyle;rounded=0;orthogonalLoop=1;jettySize=auto;html=1;exitX=0.5;exitY=0;exitDx=0;exitDy=0;exitPerimeter=0;entryX=0;entryY=0.5;entryDx=0;entryDy=0;" parent="1" source="BAY54sGpCq9EKKCVZQ9k-98" target="BAY54sGpCq9EKKCVZQ9k-108" edge="1">
          <mxGeometry relative="1" as="geometry">
            <mxPoint x="40" y="160" as="targetPoint" />
          </mxGeometry>
        </mxCell>
        <mxCell id="BAY54sGpCq9EKKCVZQ9k-105" style="edgeStyle=orthogonalEdgeStyle;rounded=0;orthogonalLoop=1;jettySize=auto;html=1;exitX=1;exitY=0.3333333333333333;exitDx=0;exitDy=0;exitPerimeter=0;" parent="1" source="BAY54sGpCq9EKKCVZQ9k-98" target="BAY54sGpCq9EKKCVZQ9k-126" edge="1">
          <mxGeometry relative="1" as="geometry">
            <mxPoint x="290" y="333" as="targetPoint" />
          </mxGeometry>
        </mxCell>
        <mxCell id="BAY54sGpCq9EKKCVZQ9k-124" value="" style="edgeStyle=none;orthogonalLoop=1;jettySize=auto;html=1;rounded=0;exitX=0.5;exitY=0.5;exitDx=0;exitDy=0;exitPerimeter=0;" parent="1" source="BAY54sGpCq9EKKCVZQ9k-98" target="BAY54sGpCq9EKKCVZQ9k-128" edge="1">
          <mxGeometry width="100" relative="1" as="geometry">
            <mxPoint x="-120" y="360" as="sourcePoint" />
            <mxPoint x="180" y="400" as="targetPoint" />
            <Array as="points" />
          </mxGeometry>
        </mxCell>
        <mxCell id="BAY54sGpCq9EKKCVZQ9k-129" value="HR" style="shape=umlActor;verticalLabelPosition=bottom;verticalAlign=top;html=1;outlineConnect=0;" parent="1" vertex="1">
          <mxGeometry x="1120" y="300" width="80" height="160" as="geometry" />
        </mxCell>
        <mxCell id="BAY54sGpCq9EKKCVZQ9k-141" value="" style="endArrow=classic;html=1;rounded=0;entryX=1;entryY=0.5;entryDx=0;entryDy=0;exitX=0;exitY=1;exitDx=0;exitDy=0;exitPerimeter=0;" parent="1" source="BAY54sGpCq9EKKCVZQ9k-129" target="BAY54sGpCq9EKKCVZQ9k-128" edge="1">
          <mxGeometry width="50" height="50" relative="1" as="geometry">
            <mxPoint x="670" y="360" as="sourcePoint" />
            <mxPoint x="720" y="310" as="targetPoint" />
          </mxGeometry>
        </mxCell>
        <mxCell id="BAY54sGpCq9EKKCVZQ9k-140" value="" style="endArrow=classic;html=1;rounded=0;entryX=1;entryY=0.5;entryDx=0;entryDy=0;exitX=0;exitY=0.3333333333333333;exitDx=0;exitDy=0;exitPerimeter=0;" parent="1" source="BAY54sGpCq9EKKCVZQ9k-129" target="BAY54sGpCq9EKKCVZQ9k-125" edge="1">
          <mxGeometry width="50" height="50" relative="1" as="geometry">
            <mxPoint x="670" y="360" as="sourcePoint" />
            <mxPoint x="720" y="310" as="targetPoint" />
          </mxGeometry>
        </mxCell>
        <mxCell id="BAY54sGpCq9EKKCVZQ9k-139" value="" style="endArrow=classic;html=1;rounded=0;entryX=1;entryY=0.5;entryDx=0;entryDy=0;exitX=0.5;exitY=0.5;exitDx=0;exitDy=0;exitPerimeter=0;" parent="1" source="BAY54sGpCq9EKKCVZQ9k-129" target="BAY54sGpCq9EKKCVZQ9k-126" edge="1">
          <mxGeometry width="50" height="50" relative="1" as="geometry">
            <mxPoint x="670" y="360" as="sourcePoint" />
            <mxPoint x="720" y="310" as="targetPoint" />
          </mxGeometry>
        </mxCell>
        <mxCell id="BAY54sGpCq9EKKCVZQ9k-138" value="" style="endArrow=classic;html=1;rounded=0;entryX=1;entryY=0.5;entryDx=0;entryDy=0;exitX=0.25;exitY=0.1;exitDx=0;exitDy=0;exitPerimeter=0;" parent="1" source="BAY54sGpCq9EKKCVZQ9k-129" target="BAY54sGpCq9EKKCVZQ9k-109" edge="1">
          <mxGeometry width="50" height="50" relative="1" as="geometry">
            <mxPoint x="670" y="360" as="sourcePoint" />
            <mxPoint x="720" y="310" as="targetPoint" />
          </mxGeometry>
        </mxCell>
        <mxCell id="BAY54sGpCq9EKKCVZQ9k-148" value="" style="endArrow=none;html=1;rounded=0;entryX=1;entryY=0.5;entryDx=0;entryDy=0;exitX=0.25;exitY=0.1;exitDx=0;exitDy=0;exitPerimeter=0;" parent="1" source="BAY54sGpCq9EKKCVZQ9k-129" target="BAY54sGpCq9EKKCVZQ9k-133" edge="1">
          <mxGeometry width="50" height="50" relative="1" as="geometry">
            <mxPoint x="1160" y="220" as="sourcePoint" />
            <mxPoint x="520" y="160" as="targetPoint" />
          </mxGeometry>
        </mxCell>
        <mxCell id="BAY54sGpCq9EKKCVZQ9k-149" value="" style="endArrow=none;html=1;rounded=0;entryX=1;entryY=0.5;entryDx=0;entryDy=0;exitX=0.5;exitY=0;exitDx=0;exitDy=0;exitPerimeter=0;" parent="1" source="BAY54sGpCq9EKKCVZQ9k-129" target="BAY54sGpCq9EKKCVZQ9k-136" edge="1">
          <mxGeometry width="50" height="50" relative="1" as="geometry">
            <mxPoint x="1180" y="190" as="sourcePoint" />
            <mxPoint x="520" y="150" as="targetPoint" />
          </mxGeometry>
        </mxCell>
        <mxCell id="BAY54sGpCq9EKKCVZQ9k-150" value="" style="endArrow=none;html=1;rounded=0;entryX=1;entryY=0.5;entryDx=0;entryDy=0;exitX=0.25;exitY=0.1;exitDx=0;exitDy=0;exitPerimeter=0;" parent="1" source="BAY54sGpCq9EKKCVZQ9k-129" target="BAY54sGpCq9EKKCVZQ9k-127" edge="1">
          <mxGeometry width="50" height="50" relative="1" as="geometry">
            <mxPoint x="470" y="200" as="sourcePoint" />
            <mxPoint x="520" y="150" as="targetPoint" />
          </mxGeometry>
        </mxCell>
        <mxCell id="bb3IZaETeLpU1EHvv75Z-20" style="rounded=0;orthogonalLoop=1;jettySize=auto;html=1;exitX=0;exitY=1;exitDx=0;exitDy=0;exitPerimeter=0;entryX=1;entryY=0;entryDx=0;entryDy=0;" edge="1" parent="1" source="bb3IZaETeLpU1EHvv75Z-4" target="BAY54sGpCq9EKKCVZQ9k-136">
          <mxGeometry relative="1" as="geometry" />
        </mxCell>
        <mxCell id="bb3IZaETeLpU1EHvv75Z-23" style="rounded=0;orthogonalLoop=1;jettySize=auto;html=1;exitX=0.5;exitY=0.5;exitDx=0;exitDy=0;exitPerimeter=0;entryX=1;entryY=0.5;entryDx=0;entryDy=0;" edge="1" parent="1" source="bb3IZaETeLpU1EHvv75Z-4" target="bb3IZaETeLpU1EHvv75Z-22">
          <mxGeometry relative="1" as="geometry" />
        </mxCell>
        <mxCell id="bb3IZaETeLpU1EHvv75Z-24" style="rounded=0;orthogonalLoop=1;jettySize=auto;html=1;exitX=0.5;exitY=0.5;exitDx=0;exitDy=0;exitPerimeter=0;entryX=1;entryY=0.5;entryDx=0;entryDy=0;strokeColor=default;" edge="1" parent="1" source="bb3IZaETeLpU1EHvv75Z-4" target="BAY54sGpCq9EKKCVZQ9k-109">
          <mxGeometry relative="1" as="geometry" />
        </mxCell>
        <mxCell id="bb3IZaETeLpU1EHvv75Z-25" style="rounded=0;orthogonalLoop=1;jettySize=auto;html=1;exitX=0.5;exitY=0.5;exitDx=0;exitDy=0;exitPerimeter=0;entryX=1;entryY=0.5;entryDx=0;entryDy=0;" edge="1" parent="1" source="bb3IZaETeLpU1EHvv75Z-4" target="BAY54sGpCq9EKKCVZQ9k-126">
          <mxGeometry relative="1" as="geometry" />
        </mxCell>
        <mxCell id="bb3IZaETeLpU1EHvv75Z-26" style="rounded=0;orthogonalLoop=1;jettySize=auto;html=1;exitX=0;exitY=1;exitDx=0;exitDy=0;exitPerimeter=0;entryX=1;entryY=1;entryDx=0;entryDy=0;" edge="1" parent="1" source="bb3IZaETeLpU1EHvv75Z-4" target="BAY54sGpCq9EKKCVZQ9k-128">
          <mxGeometry relative="1" as="geometry" />
        </mxCell>
        <mxCell id="bb3IZaETeLpU1EHvv75Z-4" value="Admin" style="shape=umlActor;verticalLabelPosition=bottom;verticalAlign=top;html=1;outlineConnect=0;strokeColor=default;spacing=16;horizontal=1;fontSize=14;" vertex="1" parent="1">
          <mxGeometry x="1110" y="-290" width="80" height="165" as="geometry" />
        </mxCell>
        <mxCell id="bb3IZaETeLpU1EHvv75Z-27" style="rounded=0;orthogonalLoop=1;jettySize=auto;html=1;exitX=0.5;exitY=0.5;exitDx=0;exitDy=0;exitPerimeter=0;entryX=0.979;entryY=0.654;entryDx=0;entryDy=0;entryPerimeter=0;" edge="1" parent="1" source="bb3IZaETeLpU1EHvv75Z-4" target="BAY54sGpCq9EKKCVZQ9k-125">
          <mxGeometry relative="1" as="geometry" />
        </mxCell>
      </root>
    </mxGraphModel>
  </diagram>
</mxfile>
